{
  "source": "C:\\Users\\Peter\\Desktop\\stuff\\MIUN\\quantitative_research\\video_compression\\videos\\BVI-HD\\BVI-HD_CDVL_videos\\ORIG\\Hamster_1920x1080_60fps.mp4",
  "output": "C:\\Users\\Peter\\Desktop\\stuff\\MIUN\\quantitative_research\\video_compression\\compressed_videos\\BVI-HD\\av1\\1\\Hamster_1920x1080_60fps_av1.mkv",
  "codec": "av1",
  "ok": "Input #0, mov,mp4,m4a,3gp,3g2,mj2, from 'C:\\Users\\Peter\\Desktop\\stuff\\MIUN\\quantitative_research\\video_compression\\videos\\BVI-HD\\BVI-HD_CDVL_videos\\ORIG\\Hamster_1920x1080_60fps.mp4':\n  Metadata:\n    major_brand     : isom\n    minor_version   : 512\n    compatible_brands: isomiso2avc1mp41\n    encoder         : Lavf54.28.101\n  Duration: 00:00:05.00, start: 0.000000, bitrate: 208485 kb/s\n  Stream #0:0[0x1](und): Video: h264 (High 4:4:4 Predictive) (avc1 / 0x31637661), yuv420p(progressive), 1920x1080, 208481 kb/s, 60 fps, 60 tbr, 60 tbn (default)\n    Metadata:\n      handler_name    : VideoHandler\n      vendor_id       : [0][0][0][0]\n[out#0/matroska @ 000001b47ec99100] Codec AVOption b:a (set bitrate (in bits/s)) has not been used for any stream. The most likely reason is either wrong type (e.g. a video option with no video streams) or that it is a private option of some decoder which was not actually used for any stream.\nStream mapping:\n  Stream #0:0 -> #0:0 (h264 (native) -> av1 (libsvtav1))\nPress [q] to stop, [?] for help\nSvt[info]: -------------------------------------------\nSvt[info]: SVT [version]:\tSVT-AV1 Encoder Lib v3.1.0-19-g6ecfe8ec\nSvt[info]: SVT [build]  :\tGCC 15.2.0\t 64 bit\nSvt[info]: LIB Build date: Aug 17 2025 11:37:13\nSvt[info]: -------------------------------------------\nSvt[info]: Level of Parallelism: 5\nSvt[info]: Number of PPCS 93\nSvt[info]: [asm level on system : up to avx2]\nSvt[info]: [asm level selected : up to avx2]\nSvt[info]: -------------------------------------------\nSvt[info]: SVT [config]: main profile\ttier (auto)\tlevel (auto)\nSvt[info]: SVT [config]: width / height / fps numerator / fps denominator \t\t: 1920 / 1080 / 60 / 1\nSvt[info]: SVT [config]: bit-depth / color format \t\t\t\t\t: 8 / YUV420\nSvt[info]: SVT [config]: preset / tune / pred struct \t\t\t\t\t: 4 / PSNR / random access\nSvt[info]: SVT [config]: gop size / mini-gop size / key-frame type \t\t\t: 321 / 16 / key frame\nSvt[info]: SVT [config]: BRC mode / target bitrate (kbps)\t\t\t\t: VBR / 1000 \nSvt[info]: SVT [config]: AQ mode / Variance Boost \t\t\t\t\t: 2 / 0\nSvt[info]: SVT [config]: sharpness / luminance-based QP bias \t\t\t\t: 0 / 0\nSvt[info]: SVT [config]: QP scale compress strength \t\t\t\t\t: 0\nSvt[info]: -------------------------------------------\nOutput #0, matroska, to 'C:\\Users\\Peter\\Desktop\\stuff\\MIUN\\quantitative_research\\video_compression\\compressed_videos\\BVI-HD\\av1\\1\\Hamster_1920x1080_60fps_av1.mkv':\n  Metadata:\n    major_brand     : isom\n    minor_version   : 512\n    compatible_brands: isomiso2avc1mp41\n    encoder         : Lavf62.3.100\n  Stream #0:0(und): Video: av1 (AV01 / 0x31305641), yuv420p(tv, progressive), 1920x1080, q=2-31, 1000 kb/s, 60 fps, 1k tbn (default)\n    Metadata:\n      encoder         : Lavc62.11.100 libsvtav1\n      handler_name    : VideoHandler\n      vendor_id       : [0][0][0][0]\n    Side data:\n      cpb: bitrate max/min/avg: 0/0/1000000 buffer size: 1000000 vbv_delay: N/A\nframe=    0 fps=0.0 q=0.0 size=       0KiB time=N/A bitrate=N/A speed=N/A elapsed=0:00:01.10    \nframe=    0 fps=0.0 q=0.0 size=       0KiB time=N/A bitrate=N/A speed=N/A elapsed=0:00:01.67    \nframe=    0 fps=0.0 q=0.0 size=       0KiB time=N/A bitrate=N/A speed=N/A elapsed=0:00:02.20    \nframe=    0 fps=0.0 q=0.0 size=       0KiB time=N/A bitrate=N/A speed=N/A elapsed=0:00:02.73    \nframe=    0 fps=0.0 q=0.0 size=       0KiB time=N/A bitrate=N/A speed=N/A elapsed=0:00:03.25    \nframe=    0 fps=0.0 q=0.0 size=       0KiB time=N/A bitrate=N/A speed=N/A elapsed=0:00:03.78    \nframe=    0 fps=0.0 q=0.0 size=       0KiB time=N/A bitrate=N/A speed=N/A elapsed=0:00:04.30    \nframe=    1 fps=0.2 q=20.0 size=       1KiB time=00:00:00.00 bitrate=N/A speed=   0x elapsed=0:00:04.82    \nframe=    1 fps=0.2 q=20.0 size=       1KiB time=00:00:00.00 bitrate=N/A speed=   0x elapsed=0:00:05.36    \nframe=    7 fps=1.2 q=48.0 size=       1KiB time=00:00:00.08 bitrate=  68.4kbits/s speed=0.0141x elapsed=0:00:05.90    \nframe=    9 fps=1.4 q=44.0 size=       1KiB time=00:00:00.13 bitrate=  42.7kbits/s speed=0.0207x elapsed=0:00:06.44    \nframe=   12 fps=1.7 q=52.0 size=       1KiB time=00:00:00.18 bitrate=  31.1kbits/s speed=0.0263x elapsed=0:00:06.96    \nframe=   17 fps=2.3 q=37.0 size=       1KiB time=00:00:00.26 bitrate=  21.4kbits/s speed=0.0356x elapsed=0:00:07.48    \nframe=   21 fps=2.6 q=46.0 size=       1KiB time=00:00:00.33 bitrate=  17.1kbits/s speed=0.0414x elapsed=0:00:08.05    \nframe=   24 fps=2.8 q=49.0 size=       1KiB time=00:00:00.38 bitrate=  14.9kbits/s speed=0.0447x elapsed=0:00:08.58    \nframe=   28 fps=3.1 q=49.0 size=       1KiB time=00:00:00.45 bitrate=  12.7kbits/s speed=0.0494x elapsed=0:00:09.11    \nframe=   33 fps=3.4 q=35.0 size=       1KiB time=00:00:00.53 bitrate=  10.7kbits/s speed=0.0552x elapsed=0:00:09.65    \nframe=   38 fps=3.7 q=51.0 size=       1KiB time=00:00:00.61 bitrate=   9.2kbits/s speed=0.0606x elapsed=0:00:10.17    \nframe=   41 fps=3.8 q=45.0 size=       1KiB time=00:00:00.66 bitrate=   8.5kbits/s speed=0.0622x elapsed=0:00:10.71    \nframe=   45 fps=4.0 q=46.0 size=       1KiB time=00:00:00.73 bitrate=   7.8kbits/s speed=0.0653x elapsed=0:00:11.23    \nframe=   51 fps=4.3 q=51.0 size=       1KiB time=00:00:00.83 bitrate=   6.8kbits/s speed=0.0709x elapsed=0:00:11.75    \nframe=   55 fps=4.5 q=49.0 size=       1KiB time=00:00:00.90 bitrate=   6.3kbits/s speed=0.0732x elapsed=0:00:12.28    \nframe=   60 fps=4.7 q=50.0 size=       1KiB time=00:00:00.98 bitrate=   5.8kbits/s speed=0.0763x elapsed=0:00:12.88    \nframe=   66 fps=4.9 q=48.0 size=       1KiB time=00:00:01.08 bitrate=   5.3kbits/s speed=0.0807x elapsed=0:00:13.43    \nframe=   70 fps=5.0 q=50.0 size=       1KiB time=00:00:01.15 bitrate=   5.0kbits/s speed=0.0823x elapsed=0:00:13.96    \nframe=   74 fps=5.1 q=52.0 size=       1KiB time=00:00:01.20 bitrate=   4.7kbits/s speed=0.0827x elapsed=0:00:14.50    \nframe=   80 fps=5.3 q=54.0 size=       1KiB time=00:00:01.30 bitrate=   4.4kbits/s speed=0.0863x elapsed=0:00:15.05    \nframe=   83 fps=5.3 q=50.0 size=       1KiB time=00:00:01.36 bitrate=   4.2kbits/s speed=0.0874x elapsed=0:00:15.63    \nframe=   86 fps=5.3 q=54.0 size=       1KiB time=00:00:01.41 bitrate=   4.0kbits/s speed=0.0876x elapsed=0:00:16.17    \nframe=   89 fps=5.3 q=47.0 size=       1KiB time=00:00:01.45 bitrate=   3.9kbits/s speed=0.0867x elapsed=0:00:16.72    \nframe=   91 fps=5.3 q=50.0 size=       1KiB time=00:00:01.50 bitrate=   3.8kbits/s speed=0.0866x elapsed=0:00:17.32    \nframe=   96 fps=5.4 q=53.0 size=       1KiB time=00:00:01.58 bitrate=   3.6kbits/s speed=0.0885x elapsed=0:00:17.88    \nframe=   99 fps=5.4 q=52.0 size=       1KiB time=00:00:01.63 bitrate=   3.5kbits/s speed=0.0885x elapsed=0:00:18.45    \nframe=  102 fps=5.4 q=53.0 size=       1KiB time=00:00:01.68 bitrate=   3.4kbits/s speed=0.0886x elapsed=0:00:19.00    \nframe=  104 fps=5.3 q=53.0 size=       1KiB time=00:00:01.70 bitrate=   3.4kbits/s speed=0.0868x elapsed=0:00:19.58    \nframe=  107 fps=5.3 q=50.0 size=       1KiB time=00:00:01.76 bitrate=   3.2kbits/s speed=0.0876x elapsed=0:00:20.17    \nframe=  111 fps=5.3 q=49.0 size=       1KiB time=00:00:01.83 bitrate=   3.1kbits/s speed=0.0883x elapsed=0:00:20.76    \nframe=  116 fps=5.4 q=52.0 size=       1KiB time=00:00:01.91 bitrate=   3.0kbits/s speed=0.09x elapsed=0:00:21.29    \nframe=  119 fps=5.5 q=51.0 size=       1KiB time=00:00:01.96 bitrate=   2.9kbits/s speed=0.0901x elapsed=0:00:21.81    \nframe=  124 fps=5.5 q=52.0 size=       1KiB time=00:00:02.05 bitrate=   2.8kbits/s speed=0.0917x elapsed=0:00:22.35    \nframe=  130 fps=5.7 q=54.0 size=       1KiB time=00:00:02.13 bitrate=   2.7kbits/s speed=0.0932x elapsed=0:00:22.88    \nframe=  135 fps=5.8 q=48.0 size=       1KiB time=00:00:02.23 bitrate=   2.6kbits/s speed=0.0954x elapsed=0:00:23.40    \nframe=  139 fps=5.8 q=50.0 size=       1KiB time=00:00:02.30 bitrate=   2.5kbits/s speed=0.0959x elapsed=0:00:23.97    \nframe=  147 fps=6.0 q=52.0 size=       1KiB time=00:00:02.43 bitrate=   2.3kbits/s speed=0.0994x elapsed=0:00:24.49    \nframe=  151 fps=6.0 q=49.0 size=       1KiB time=00:00:02.50 bitrate=   2.3kbits/s speed=0.0999x elapsed=0:00:25.02    \nframe=  159 fps=6.2 q=51.0 size=       1KiB time=00:00:02.63 bitrate=   2.2kbits/s speed=0.103x elapsed=0:00:25.55    \nframe=  166 fps=6.4 q=58.0 size=       1KiB time=00:00:02.75 bitrate=   2.1kbits/s speed=0.105x elapsed=0:00:26.08    \nframe=  172 fps=6.5 q=58.0 size=       1KiB time=00:00:02.83 bitrate=   2.0kbits/s speed=0.106x elapsed=0:00:26.60    \nframe=  180 fps=6.6 q=59.0 size=       1KiB time=00:00:02.98 bitrate=   1.9kbits/s speed=0.11x elapsed=0:00:27.14    \nframe=  185 fps=6.7 q=51.0 size=       1KiB time=00:00:03.06 bitrate=   1.9kbits/s speed=0.111x elapsed=0:00:27.66    \nframe=  195 fps=6.9 q=58.0 size=       1KiB time=00:00:03.23 bitrate=   1.8kbits/s speed=0.115x elapsed=0:00:28.19    \nframe=  199 fps=6.9 q=55.0 size=       1KiB time=00:00:03.30 bitrate=   1.7kbits/s speed=0.115x elapsed=0:00:28.70    \nframe=  205 fps=7.0 q=54.0 size=       1KiB time=00:00:03.40 bitrate=   1.7kbits/s speed=0.116x elapsed=0:00:29.22    \nframe=  213 fps=7.2 q=56.0 size=       1KiB time=00:00:03.53 bitrate=   1.6kbits/s speed=0.119x elapsed=0:00:29.75    \nframe=  217 fps=7.2 q=54.0 size=       1KiB time=00:00:03.60 bitrate=   1.6kbits/s speed=0.119x elapsed=0:00:30.28    \nframe=  223 fps=7.2 q=54.0 size=       1KiB time=00:00:03.70 bitrate=   1.5kbits/s speed=0.12x elapsed=0:00:30.80    \nframe=  229 fps=7.3 q=54.0 size=       1KiB time=00:00:03.80 bitrate=   1.5kbits/s speed=0.121x elapsed=0:00:31.32    \nframe=  233 fps=7.3 q=52.0 size=       1KiB time=00:00:03.86 bitrate=   1.5kbits/s speed=0.121x elapsed=0:00:31.84    \nframe=  237 fps=7.3 q=50.0 size=       1KiB time=00:00:03.93 bitrate=   1.4kbits/s speed=0.122x elapsed=0:00:32.36    \nframe=  245 fps=7.4 q=53.0 size=       1KiB time=00:00:04.06 bitrate=   1.4kbits/s speed=0.124x elapsed=0:00:32.89    \nframe=  249 fps=7.5 q=49.0 size=       1KiB time=00:00:04.13 bitrate=   1.4kbits/s speed=0.124x elapsed=0:00:33.41    \nframe=  255 fps=7.5 q=53.0 size=       1KiB time=00:00:04.23 bitrate=   1.3kbits/s speed=0.125x elapsed=0:00:33.92    \nframe=  265 fps=7.7 q=49.0 size=       1KiB time=00:00:04.36 bitrate=   1.3kbits/s speed=0.127x elapsed=0:00:34.46    \nframe=  269 fps=7.7 q=52.0 size=       1KiB time=00:00:04.46 bitrate=   1.3kbits/s speed=0.128x elapsed=0:00:34.98    \nframe=  277 fps=7.8 q=56.0 size=       1KiB time=00:00:04.60 bitrate=   1.2kbits/s speed=0.13x elapsed=0:00:35.49    \nframe=  287 fps=8.0 q=56.0 size=       1KiB time=00:00:04.76 bitrate=   1.2kbits/s speed=0.132x elapsed=0:00:36.01    \n[out#0/matroska @ 000001b47ec99100] video:682KiB audio:0KiB subtitle:0KiB other streams:0KiB global headers:0KiB muxing overhead: 0.303463%\nframe=  300 fps=8.3 q=56.0 Lsize=     684KiB time=00:00:04.98 bitrate=1124.9kbits/s speed=0.138x elapsed=0:00:36.18    \n",
  "seconds": 36.575849771499634,
  "probe_out": {}
}